<?xml version="1.0" encoding="UTF-8"?>
<svg version="1.1" xmlns="http://www.w3.org/2000/svg" width="500" height="500">
<path d="M0 0 C165 0 330 0 500 0 C500 165 500 330 500 500 C335 500 170 500 0 500 C0 335 0 170 0 0 Z " fill="#FEFEFE" transform="translate(0,0)"/>
<path d="M0 0 C0.97135895 -0.00761353 1.9427179 -0.01522705 2.94351196 -0.02307129 C4.99258869 -0.03384692 7.04172022 -0.03673574 9.09082031 -0.03222656 C12.20992588 -0.03125518 15.32656223 -0.07288707 18.4453125 -0.1171875 C20.44270324 -0.12239587 22.44010247 -0.12508267 24.4375 -0.125 C25.36170746 -0.14139526 26.28591492 -0.15779053 27.23812866 -0.17468262 C33.65824818 -0.10686833 37.95202472 1.24143233 42.8515625 5.46875 C47.67829603 10.62032308 47.43704967 15.64424536 47.3828125 22.34375 C47.38855286 23.90778564 47.38855286 23.90778564 47.39440918 25.50341797 C47.39712428 27.70215829 47.38979135 29.90093114 47.37304688 32.09960938 C47.35163254 35.45776647 47.37286329 38.81378415 47.3984375 42.171875 C47.39579415 44.3125047 47.39066904 46.45313308 47.3828125 48.59375 C47.39090942 49.59390137 47.39900635 50.59405273 47.40734863 51.62451172 C47.3299189 57.40428228 46.81520131 60.94195164 42.8515625 65.46875 C38.50924526 68.74764261 35.11762427 70.57296409 29.67480469 70.64575195 C28.83673279 70.65858719 27.99866089 70.67142242 27.13519287 70.68464661 C25.78049896 70.69572701 25.78049896 70.69572701 24.3984375 70.70703125 C23.46485413 70.715103 22.53127075 70.72317474 21.56939697 70.73149109 C19.59234468 70.74532233 17.61526861 70.75604878 15.63818359 70.76391602 C12.62681323 70.78110586 9.61654749 70.82499787 6.60546875 70.86914062 C4.68229972 70.87927006 2.75912138 70.88778538 0.8359375 70.89453125 C-0.05909485 70.91203934 -0.9541272 70.92954742 -1.87628174 70.94758606 C-8.56849563 70.92457093 -12.85056821 69.49302924 -17.890625 64.87109375 C-20.99363043 60.85858673 -22.25573938 58.05687033 -22.35717773 53.0324707 C-22.37646835 52.13756424 -22.39575897 51.24265778 -22.41563416 50.32063293 C-22.47360099 46.22331998 -22.52266702 42.1261787 -22.5534668 38.02856445 C-22.57502605 35.87247684 -22.60910406 33.71647625 -22.65600586 31.56079102 C-22.72319753 28.44247588 -22.75049872 25.3259694 -22.76953125 22.20703125 C-22.79736191 21.25153885 -22.82519257 20.29604645 -22.85386658 19.31159973 C-22.83561677 13.32152337 -21.78895161 9.63849854 -17.82133484 5.06987 C-12.48239383 -0.03999838 -6.99347288 0.00151747 0 0 Z " fill="#FBFAFE" transform="translate(137.1484375,217.53125)"/>
<path d="M0 0 C0.97135895 -0.00761353 1.9427179 -0.01522705 2.94351196 -0.02307129 C4.99258869 -0.03384692 7.04172022 -0.03673574 9.09082031 -0.03222656 C12.20992588 -0.03125518 15.32656223 -0.07288707 18.4453125 -0.1171875 C20.44270324 -0.12239587 22.44010247 -0.12508267 24.4375 -0.125 C25.36170746 -0.14139526 26.28591492 -0.15779053 27.23812866 -0.17468262 C33.65824818 -0.10686833 37.95202472 1.24143233 42.8515625 5.46875 C47.67829603 10.62032308 47.43704967 15.64424536 47.3828125 22.34375 C47.38855286 23.90778564 47.38855286 23.90778564 47.39440918 25.50341797 C47.39712428 27.70215829 47.38979135 29.90093114 47.37304688 32.09960938 C47.35163254 35.45776647 47.37286329 38.81378415 47.3984375 42.171875 C47.39579415 44.3125047 47.39066904 46.45313308 47.3828125 48.59375 C47.39090942 49.59390137 47.39900635 50.59405273 47.40734863 51.62451172 C47.3299189 57.40428228 46.81520131 60.94195164 42.8515625 65.46875 C38.50924526 68.74764261 35.11762427 70.57296409 29.67480469 70.64575195 C28.83673279 70.65858719 27.99866089 70.67142242 27.13519287 70.68464661 C25.78049896 70.69572701 25.78049896 70.69572701 24.3984375 70.70703125 C23.46485413 70.715103 22.53127075 70.72317474 21.56939697 70.73149109 C19.59234468 70.74532233 17.61526861 70.75604878 15.63818359 70.76391602 C12.62681323 70.78110586 9.61654749 70.82499787 6.60546875 70.86914062 C4.68229972 70.87927006 2.75912138 70.88778538 0.8359375 70.89453125 C-0.05909485 70.91203934 -0.9541272 70.92954742 -1.87628174 70.94758606 C-8.56849563 70.92457093 -12.85056821 69.49302924 -17.890625 64.87109375 C-20.99363043 60.85858673 -22.25573938 58.05687033 -22.35717773 53.0324707 C-22.37646835 52.13756424 -22.39575897 51.24265778 -22.41563416 50.32063293 C-22.47360099 46.22331998 -22.52266702 42.1261787 -22.5534668 38.02856445 C-22.57502605 35.87247684 -22.60910406 33.71647625 -22.65600586 31.56079102 C-22.72319753 28.44247588 -22.75049872 25.3259694 -22.76953125 22.20703125 C-22.79736191 21.25153885 -22.82519257 20.29604645 -22.85386658 19.31159973 C-22.83561677 13.32152337 -21.78895161 9.63849854 -17.82133484 5.06987 C-12.48239383 -0.03999838 -6.99347288 0.00151747 0 0 Z M-13.34074402 13.60237122 C-14.87612085 17.15024527 -14.81974046 20.59560349 -14.7421875 24.41015625 C-14.74222778 25.25545395 -14.74226807 26.10075165 -14.74230957 26.97166443 C-14.73696908 28.75096104 -14.71944937 30.53025822 -14.69042969 32.30932617 C-14.64850901 35.02661459 -14.64937073 37.74142642 -14.65625 40.45898438 C-14.64575844 42.19272548 -14.63282051 43.92645388 -14.6171875 45.66015625 C-14.61698608 46.46860489 -14.61678467 47.27705353 -14.61657715 48.11000061 C-14.52064629 52.69837962 -14.12037988 55.75075906 -11.1484375 59.46875 C-8.12445212 61.48474025 -7.51683248 61.72266755 -4.12353516 61.75927734 C-2.91680649 61.7784169 -2.91680649 61.7784169 -1.68569946 61.79794312 C-0.82004364 61.80016876 0.04561218 61.80239441 0.9375 61.8046875 C1.83143463 61.8113443 2.72536926 61.8180011 3.64639282 61.82485962 C5.53767845 61.83498469 7.4289998 61.83967668 9.3203125 61.83935547 C12.20893516 61.84372335 15.09602326 61.88002895 17.984375 61.91796875 C19.82291145 61.92383806 21.66145515 61.92780669 23.5 61.9296875 C24.36160736 61.94405853 25.22321472 61.95842957 26.1109314 61.97323608 C30.17757694 61.94237344 32.328981 61.78716248 35.87353516 59.62744141 C39.60087464 55.55966361 39.02771788 51.03612104 39.0546875 45.8203125 C39.06323761 44.54599869 39.06323761 44.54599869 39.07196045 43.24594116 C39.08140355 41.44880415 39.08794169 39.65164987 39.09179688 37.85449219 C39.10150141 35.11101963 39.13253035 32.36829673 39.1640625 29.625 C39.17059301 27.87760861 39.17584329 26.13021187 39.1796875 24.3828125 C39.1920343 23.5649527 39.2043811 22.7470929 39.21710205 21.90444946 C39.19905885 17.27055534 38.86303504 14.23263245 35.8515625 10.46875 C33.58858563 9.33726157 32.27137566 9.31364756 29.7565918 9.26000977 C28.91198898 9.24071915 28.06738617 9.22142853 27.19718933 9.20155334 C23.33275604 9.14382951 19.46850907 9.09453908 15.60375977 9.0637207 C13.5658271 9.04212865 11.52798747 9.00801155 9.49047852 8.96118164 C6.55182502 8.89424789 3.61508904 8.86673379 0.67578125 8.84765625 C-0.68695671 8.80591026 -0.68695671 8.80591026 -2.07722473 8.76332092 C-7.06398606 8.77952097 -10.31071884 9.11020417 -13.34074402 13.60237122 Z " fill="#621DEB" transform="translate(137.1484375,217.53125)"/>
<path d="M0 0 C26.26940639 0 26.26940639 0 33.0234375 5.7109375 C38.96502663 13.02630447 39.78291626 19.69063636 39 29 C37.57493462 35.78019386 34.08281547 39.89466261 28.4375 43.75 C19.4552283 48.35629318 10.56596004 46 0 46 C0 30.82 0 15.64 0 0 Z " fill="#06384B" transform="translate(271,231)"/>
<path d="M0 0 C4.01684726 2.93915653 6.95784056 6.06102168 8.5625 10.875 C9.26961294 18.65324229 8.34628828 24.48931155 3.25 30.6875 C-1.18460618 34.29706317 -5.61557798 35.42581562 -11.3515625 35.25 C-16.81459101 34.26788251 -20.4761684 31.02859792 -23.9375 26.875 C-26.74963615 21.15029426 -26.59390703 13.62357783 -24.7421875 7.62109375 C-19.67025136 -2.24573999 -9.69746591 -3.17371611 0 0 Z " fill="#07394C" transform="translate(339.4375,243.125)"/>
<path d="M0 0 C10.23 0 20.46 0 31 0 C31 2.97 31 5.94 31 9 C23.74 9 16.48 9 9 9 C9 12.3 9 15.6 9 19 C15.6 19 22.2 19 29 19 C29 21.64 29 24.28 29 27 C22.73 27 16.46 27 10 27 C10 30.3 10 33.6 10 37 C16.93 37 23.86 37 31 37 C31 39.97 31 42.94 31 46 C20.77 46 10.54 46 0 46 C0 30.82 0 15.64 0 0 Z " fill="#04374A" transform="translate(202,231)"/>
<path d="M0 0 C8.91 0 17.82 0 27 0 C27 8.99870466 27 8.99870466 24.734375 11.44921875 C24.25613281 11.98740234 23.77789062 12.52558594 23.28515625 13.08007812 C22.77855469 13.61052734 22.27195312 14.14097656 21.75 14.6875 C20.76522192 15.7743745 19.78084067 16.8616087 18.796875 17.94921875 C18.35698242 18.41674561 17.91708984 18.88427246 17.46386719 19.3659668 C15.55229418 21.49974901 13.78963279 23.76295901 12 26 C16.95 26.33 21.9 26.66 27 27 C27 29.64 27 32.28 27 35 C17.76 35 8.52 35 -1 35 C-1 27.14190317 -1 27.14190317 3.0625 22.625 C3.8771875 21.69300781 4.691875 20.76101563 5.53125 19.80078125 C6.75328125 18.41439453 6.75328125 18.41439453 8 17 C9.36839415 15.28207038 10.72418052 13.55396079 12.0625 11.8125 C13.031875 10.554375 14.00125 9.29625 15 8 C10.05 8 5.1 8 0 8 C0 5.36 0 2.72 0 0 Z " fill="#05384B" transform="translate(238,242)"/>
<path d="M0 0 C3.04162161 2.28121621 4.69403824 4.54091675 6.5 7.875 C6.5 8.865 6.5 9.855 6.5 10.875 C3.53 10.875 0.56 10.875 -2.5 10.875 C-2.83 9.885 -3.16 8.895 -3.5 7.875 C-4.93655854 7.79368537 -6.3744483 7.73566441 -7.8125 7.6875 C-8.61300781 7.65269531 -9.41351563 7.61789063 -10.23828125 7.58203125 C-12.53998093 7.70787908 -12.53998093 7.70787908 -14.27734375 9.078125 C-15.8911129 11.44979851 -15.83564456 12.96481833 -15.75 15.8125 C-15.73453125 16.66714844 -15.7190625 17.52179688 -15.703125 18.40234375 C-15.51658587 20.67309898 -15.12855941 22.69024914 -14.5 24.875 C-12.87581255 24.95590971 -11.25048255 25.01414995 -9.625 25.0625 C-8.72007812 25.09730469 -7.81515625 25.13210938 -6.8828125 25.16796875 C-6.09648437 25.07128906 -5.31015625 24.97460938 -4.5 24.875 C-3.84 23.885 -3.18 22.895 -2.5 21.875 C-0.3359375 21.58203125 -0.3359375 21.58203125 2.125 21.6875 C3.35089844 21.72810547 3.35089844 21.72810547 4.6015625 21.76953125 C5.22804688 21.80433594 5.85453125 21.83914063 6.5 21.875 C5.9938686 26.30364971 4.65110054 28.72389946 1.5 31.875 C-3.76005147 34.80849025 -7.6313354 35.43392044 -13.5 34.875 C-18.76594344 33.01643173 -21.29395768 30.27185804 -24.5 25.875 C-26.65892395 19.39822814 -26.66125218 11.46548563 -23.875 5.25 C-16.78667728 -1.83832272 -9.58911573 -3.08221577 0 0 Z " fill="#083B4D" transform="translate(377.5,243.125)"/>
<path d="M0 0 C3 0.25 3 0.25 5 2.25 C5.1953125 4.6328125 5.1953125 4.6328125 5.125 7.375 C5.10695312 8.28507813 5.08890625 9.19515625 5.0703125 10.1328125 C5.04710937 10.83148438 5.02390625 11.53015625 5 12.25 C5.61488281 12.22679687 6.22976562 12.20359375 6.86328125 12.1796875 C7.67152344 12.16164062 8.47976562 12.14359375 9.3125 12.125 C10.11300781 12.10179687 10.91351563 12.07859375 11.73828125 12.0546875 C14 12.25 14 12.25 17 14.25 C17.375 17.25 17.375 17.25 17 20.25 C13.79619983 22.38586678 12.98060033 22.48132175 9.3125 22.375 C8.50425781 22.35695313 7.69601563 22.33890625 6.86328125 22.3203125 C6.24839844 22.29710937 5.63351563 22.27390625 5 22.25 C5.02320313 22.86488281 5.04640625 23.47976563 5.0703125 24.11328125 C5.09738281 25.32564453 5.09738281 25.32564453 5.125 26.5625 C5.14820313 27.36300781 5.17140625 28.16351563 5.1953125 28.98828125 C5 31.25 5 31.25 3 34.25 C-2.10957722 34.90228645 -2.10957722 34.90228645 -4.6796875 33.01953125 C-6.39064332 30.72644549 -6.31043478 29.38999998 -6.1875 26.5625 C-6.16042969 25.75425781 -6.13335937 24.94601562 -6.10546875 24.11328125 C-6.07066406 23.49839844 -6.03585938 22.88351562 -6 22.25 C-6.62648437 22.27320313 -7.25296875 22.29640625 -7.8984375 22.3203125 C-9.12433594 22.34738281 -9.12433594 22.34738281 -10.375 22.375 C-11.59316406 22.40980469 -11.59316406 22.40980469 -12.8359375 22.4453125 C-15 22.25 -15 22.25 -17 20.25 C-17.25 17.25 -17.25 17.25 -17 14.25 C-15 12.25 -15 12.25 -12.6171875 12.0546875 C-11.71226562 12.07789063 -10.80734375 12.10109375 -9.875 12.125 C-8.50988281 12.15207031 -8.50988281 12.15207031 -7.1171875 12.1796875 C-6.41851562 12.20289063 -5.71984375 12.22609375 -5 12.25 C-5.02320313 11.55132812 -5.04640625 10.85265625 -5.0703125 10.1328125 C-5.08835938 9.22273437 -5.10640625 8.31265625 -5.125 7.375 C-5.14820313 6.47007812 -5.17140625 5.56515625 -5.1953125 4.6328125 C-4.88519731 0.84940724 -3.66944414 0.30578701 0 0 Z " fill="#864EF4" transform="translate(150,235.75)"/>
<path d="M0 0 C11.9 0 11.9 0 16 3 C19.36351985 7.70892779 19.85958743 12.39851268 19 18 C17.2718963 23.18431111 15.99972028 25.50013986 11 28 C7.37 28 3.74 28 0 28 C0 18.76 0 9.52 0 0 Z " fill="#FCFCFC" transform="translate(281,240)"/>
<path d="M0 0 C3.96545673 0.63730555 5.10063397 1.4248675 7.5 4.5625 C9.0547669 7.67203379 8.78644437 10.12516761 8.5 13.5625 C7 17 7 17 4.5 19.5625 C1.65590598 20.37842861 -0.6474626 20.32239726 -3.5 19.5625 C-6.27103921 17.41494461 -7.27408352 15.86387305 -7.875 12.40234375 C-8.0851063 8.46941652 -7.74559508 6.04386636 -5.9375 2.5 C-3.5 0.5625 -3.5 0.5625 0 0 Z " fill="#F6F8F8" transform="translate(330.5,249.4375)"/>
<path d="M0 0 C0.90492188 0.02320313 1.80984375 0.04640625 2.7421875 0.0703125 C4.10730469 0.09738281 4.10730469 0.09738281 5.5 0.125 C6.19867188 0.14820313 6.89734375 0.17140625 7.6171875 0.1953125 C7.7409375 1.3090625 7.8646875 2.4228125 7.9921875 3.5703125 C8.2637688 7.22634927 8.2637688 7.22634927 10.6171875 9.1953125 C12.93993927 9.59578694 15.27458107 9.9350229 17.6171875 10.1953125 C17.67141697 11.6323934 17.71008473 13.07006712 17.7421875 14.5078125 C17.76539063 15.30832031 17.78859375 16.10882813 17.8125 16.93359375 C17.6171875 19.1953125 17.6171875 19.1953125 15.6171875 22.1953125 C10.50761028 22.84759895 10.50761028 22.84759895 7.9375 20.96484375 C6.22654418 18.67175799 6.30675272 17.33531248 6.4296875 14.5078125 C6.45675781 13.69957031 6.48382813 12.89132812 6.51171875 12.05859375 C6.54652344 11.44371094 6.58132812 10.82882812 6.6171875 10.1953125 C5.67746094 10.23011719 5.67746094 10.23011719 4.71875 10.265625 C3.49285156 10.29269531 3.49285156 10.29269531 2.2421875 10.3203125 C1.43007812 10.34351563 0.61796875 10.36671875 -0.21875 10.390625 C-2.3828125 10.1953125 -2.3828125 10.1953125 -4.3828125 8.1953125 C-4.6328125 5.1953125 -4.6328125 5.1953125 -4.3828125 2.1953125 C-2.3828125 0.1953125 -2.3828125 0.1953125 0 0 Z " fill="#2534C3" transform="translate(137.3828125,247.8046875)"/>
<path d="M0 0 C1.32 0.33 2.64 0.66 4 1 C4 2.32 4 3.64 4 5 C5.65 5.33 7.3 5.66 9 6 C9 7.32 9 8.64 9 10 C7.35 10 5.7 10 4 10 C4 11.65 4 13.3 4 15 C2.35 15 0.7 15 -1 15 C-1 13.35 -1 11.7 -1 10 C-2.65 10 -4.3 10 -6 10 C-5.67 8.35 -5.34 6.7 -5 5 C-3.68 5 -2.36 5 -1 5 C-0.67 3.35 -0.34 1.7 0 0 Z " fill="#8C57F4" transform="translate(397,221)"/>
<path d="M0 0 C3.53677664 -0.32152515 5.3962104 -0.4131192 8.375 1.625 C10.4131192 4.6037896 10.32152515 6.46322336 10 10 C3.65492958 10.35915493 3.65492958 10.35915493 1.0625 8.9375 C-0.55479605 5.98831309 -0.18630138 3.29132441 0 0 Z " fill="#F99E60" transform="translate(145,248)"/>
<path d="M0 0 C1.32 0 2.64 0 4 0 C4.33 1.32 4.66 2.64 5 4 C6.32 4.33 7.64 4.66 9 5 C9 6.65 9 8.3 9 10 C7.35 10 5.7 10 4 10 C4 8.35 4 6.7 4 5 C2.35 5 0.7 5 -1 5 C-0.67 3.35 -0.34 1.7 0 0 Z " fill="#2C3BC6" transform="translate(392,226)"/>
<path d="M0 0 C1.98 0.495 1.98 0.495 4 1 C4 2.32 4 3.64 4 5 C2.35 5 0.7 5 -1 5 C-0.67 3.35 -0.34 1.7 0 0 Z " fill="#8C56F6" transform="translate(397,221)"/>
<path d="M0 0 C1.32 0.33 2.64 0.66 4 1 C4.33 2.32 4.66 3.64 5 5 C3.35 4.67 1.7 4.34 0 4 C0 2.68 0 1.36 0 0 Z " fill="#E2916C" transform="translate(396,226)"/>
</svg>
